<mxfile host="Electron" agent="Mozilla/5.0 (Windows NT 10.0; Win64; x64) AppleWebKit/537.36 (KHTML, like Gecko) draw.io/24.7.5 Chrome/126.0.6478.183 Electron/31.3.0 Safari/537.36" version="24.7.5">
  <diagram name="PÃ¡gina-1" id="hs4eidEB3ET79FOGPKu9">
    <mxGraphModel dx="2162" dy="1280" grid="0" gridSize="10" guides="1" tooltips="1" connect="1" arrows="1" fold="1" page="0" pageScale="1" pageWidth="4681" pageHeight="3300" math="0" shadow="0">
      <root>
        <mxCell id="0" />
        <mxCell id="1" parent="0" />
        <mxCell id="yO5S6J-YgCtZeVcnPbtX-7" style="rounded=0;orthogonalLoop=1;jettySize=auto;html=1;entryX=0;entryY=0.5;entryDx=0;entryDy=0;exitX=1;exitY=0;exitDx=0;exitDy=0;strokeColor=#0000FF;fontStyle=0;fontColor=#0000FF;" edge="1" parent="1" source="yO5S6J-YgCtZeVcnPbtX-2" target="yO5S6J-YgCtZeVcnPbtX-3">
          <mxGeometry relative="1" as="geometry">
            <mxPoint x="269.98" y="40" as="sourcePoint" />
            <mxPoint x="499.98" y="-170" as="targetPoint" />
          </mxGeometry>
        </mxCell>
        <mxCell id="yO5S6J-YgCtZeVcnPbtX-13" value="&lt;i&gt;&lt;font color=&quot;#0000ff&quot;&gt;gprc:65000:paymentToken&lt;/font&gt;&lt;/i&gt;" style="edgeLabel;html=1;align=left;verticalAlign=middle;resizable=0;points=[];" vertex="1" connectable="0" parent="yO5S6J-YgCtZeVcnPbtX-7">
          <mxGeometry x="0.0741" y="-2" relative="1" as="geometry">
            <mxPoint x="-108" y="48" as="offset" />
          </mxGeometry>
        </mxCell>
        <mxCell id="yO5S6J-YgCtZeVcnPbtX-2" value="&lt;b&gt;go-gateway-grpc&lt;/b&gt;" style="rounded=1;whiteSpace=wrap;html=1;" vertex="1" parent="1">
          <mxGeometry y="-110" width="120" height="60" as="geometry" />
        </mxCell>
        <mxCell id="yO5S6J-YgCtZeVcnPbtX-15" style="edgeStyle=orthogonalEdgeStyle;rounded=0;orthogonalLoop=1;jettySize=auto;html=1;strokeColor=#0000FF;" edge="1" parent="1" source="yO5S6J-YgCtZeVcnPbtX-3" target="yO5S6J-YgCtZeVcnPbtX-14">
          <mxGeometry relative="1" as="geometry" />
        </mxCell>
        <mxCell id="yO5S6J-YgCtZeVcnPbtX-36" value="&lt;font color=&quot;#0000ff&quot;&gt;gprc:65001:AddPaymentTokenGrpc&lt;/font&gt;" style="edgeLabel;html=1;align=center;verticalAlign=middle;resizable=0;points=[];" vertex="1" connectable="0" parent="yO5S6J-YgCtZeVcnPbtX-15">
          <mxGeometry x="-0.1582" relative="1" as="geometry">
            <mxPoint x="6" y="-10" as="offset" />
          </mxGeometry>
        </mxCell>
        <mxCell id="yO5S6J-YgCtZeVcnPbtX-82" style="rounded=0;orthogonalLoop=1;jettySize=auto;html=1;entryX=0.25;entryY=0;entryDx=0;entryDy=0;strokeColor=#0000FF;exitX=0.25;exitY=1;exitDx=0;exitDy=0;" edge="1" parent="1" source="yO5S6J-YgCtZeVcnPbtX-3" target="yO5S6J-YgCtZeVcnPbtX-17">
          <mxGeometry relative="1" as="geometry" />
        </mxCell>
        <mxCell id="yO5S6J-YgCtZeVcnPbtX-83" value="&lt;i style=&quot;font-size: 10px;&quot;&gt;&lt;font style=&quot;font-size: 10px;&quot; color=&quot;#0000ff&quot;&gt;paymentToken&lt;/font&gt;&lt;/i&gt;&lt;div style=&quot;font-size: 10px;&quot;&gt;&lt;i style=&quot;&quot;&gt;&lt;font style=&quot;font-size: 10px;&quot; color=&quot;#0000ff&quot;&gt;step(3): /movimentTransaction&lt;/font&gt;&lt;/i&gt;&lt;/div&gt;" style="edgeLabel;html=1;align=center;verticalAlign=middle;resizable=0;points=[];" vertex="1" connectable="0" parent="yO5S6J-YgCtZeVcnPbtX-82">
          <mxGeometry x="-0.3997" y="-2" relative="1" as="geometry">
            <mxPoint x="3" y="-84" as="offset" />
          </mxGeometry>
        </mxCell>
        <mxCell id="yO5S6J-YgCtZeVcnPbtX-84" style="rounded=0;orthogonalLoop=1;jettySize=auto;html=1;entryX=0.601;entryY=-0.022;entryDx=0;entryDy=0;strokeColor=#0000FF;exitX=0.909;exitY=1.035;exitDx=0;exitDy=0;exitPerimeter=0;entryPerimeter=0;" edge="1" parent="1" source="yO5S6J-YgCtZeVcnPbtX-3" target="yO5S6J-YgCtZeVcnPbtX-16">
          <mxGeometry relative="1" as="geometry" />
        </mxCell>
        <mxCell id="yO5S6J-YgCtZeVcnPbtX-85" value="&lt;i&gt;&lt;font color=&quot;#0000ff&quot;&gt;paymentToken&lt;/font&gt;&lt;/i&gt;&lt;div&gt;&lt;i&gt;&lt;font color=&quot;#0000ff&quot;&gt;step(4): /atc&lt;/font&gt;&lt;/i&gt;&lt;/div&gt;" style="edgeLabel;html=1;align=center;verticalAlign=middle;resizable=0;points=[];" vertex="1" connectable="0" parent="yO5S6J-YgCtZeVcnPbtX-84">
          <mxGeometry x="-0.4887" y="-1" relative="1" as="geometry">
            <mxPoint x="-57" y="-65" as="offset" />
          </mxGeometry>
        </mxCell>
        <mxCell id="yO5S6J-YgCtZeVcnPbtX-3" value="&lt;b&gt;&lt;font color=&quot;#0000ff&quot;&gt;go-payment-authorizer&lt;/font&gt;&lt;/b&gt;" style="rounded=1;whiteSpace=wrap;html=1;" vertex="1" parent="1">
          <mxGeometry x="300" y="-270" width="240" height="60" as="geometry" />
        </mxCell>
        <mxCell id="yO5S6J-YgCtZeVcnPbtX-61" style="edgeStyle=orthogonalEdgeStyle;rounded=0;orthogonalLoop=1;jettySize=auto;html=1;entryX=0;entryY=0.5;entryDx=0;entryDy=0;dashed=1;exitX=1;exitY=0.25;exitDx=0;exitDy=0;" edge="1" parent="1" source="yO5S6J-YgCtZeVcnPbtX-5" target="yO5S6J-YgCtZeVcnPbtX-6">
          <mxGeometry relative="1" as="geometry">
            <Array as="points">
              <mxPoint x="560" y="60" />
              <mxPoint x="640" y="60" />
              <mxPoint x="640" y="-100" />
            </Array>
          </mxGeometry>
        </mxCell>
        <mxCell id="yO5S6J-YgCtZeVcnPbtX-66" value="&lt;i style=&quot;text-align: left;&quot;&gt;&lt;font color=&quot;#ff0000&quot;&gt;payment&amp;nbsp;&lt;/font&gt;&lt;/i&gt;&lt;div&gt;&lt;font color=&quot;#ff0000&quot;&gt;&lt;i&gt;step(1):&amp;nbsp;&lt;/i&gt;&lt;i&gt;/checkLimitTransaction&lt;/i&gt;&lt;/font&gt;&lt;/div&gt;&lt;div&gt;&lt;i&gt;pixTransaction&lt;/i&gt;&lt;/div&gt;&lt;div&gt;&lt;i&gt;step(2): /checkLimitTransaction&lt;/i&gt;&lt;/div&gt;" style="edgeLabel;html=1;align=center;verticalAlign=middle;resizable=0;points=[];" vertex="1" connectable="0" parent="yO5S6J-YgCtZeVcnPbtX-61">
          <mxGeometry x="-0.1244" y="-1" relative="1" as="geometry">
            <mxPoint x="-61" y="53" as="offset" />
          </mxGeometry>
        </mxCell>
        <mxCell id="yO5S6J-YgCtZeVcnPbtX-62" style="edgeStyle=orthogonalEdgeStyle;rounded=0;orthogonalLoop=1;jettySize=auto;html=1;entryX=0.626;entryY=-0.007;entryDx=0;entryDy=0;dashed=1;entryPerimeter=0;" edge="1" parent="1" source="yO5S6J-YgCtZeVcnPbtX-5" target="yO5S6J-YgCtZeVcnPbtX-18">
          <mxGeometry relative="1" as="geometry">
            <Array as="points">
              <mxPoint x="510" y="265" />
              <mxPoint x="543" y="265" />
            </Array>
          </mxGeometry>
        </mxCell>
        <mxCell id="yO5S6J-YgCtZeVcnPbtX-65" value="&lt;div&gt;&lt;i&gt;pixTransaction&lt;/i&gt;&lt;/div&gt;&lt;i&gt;step(1): /get/{id}&lt;/i&gt;" style="edgeLabel;html=1;align=center;verticalAlign=middle;resizable=0;points=[];" vertex="1" connectable="0" parent="yO5S6J-YgCtZeVcnPbtX-62">
          <mxGeometry x="-0.0831" y="-1" relative="1" as="geometry">
            <mxPoint x="-6" y="-86" as="offset" />
          </mxGeometry>
        </mxCell>
        <mxCell id="yO5S6J-YgCtZeVcnPbtX-63" style="rounded=0;orthogonalLoop=1;jettySize=auto;html=1;entryX=0.5;entryY=0;entryDx=0;entryDy=0;dashed=1;edgeStyle=orthogonalEdgeStyle;" edge="1" parent="1" source="yO5S6J-YgCtZeVcnPbtX-5" target="yO5S6J-YgCtZeVcnPbtX-17">
          <mxGeometry relative="1" as="geometry">
            <Array as="points">
              <mxPoint x="420" y="215" />
              <mxPoint x="305" y="215" />
            </Array>
          </mxGeometry>
        </mxCell>
        <mxCell id="yO5S6J-YgCtZeVcnPbtX-67" value="&lt;div style=&quot;font-size: 10px;&quot;&gt;&lt;font color=&quot;#ff0000&quot; style=&quot;font-size: 10px;&quot;&gt;&lt;i style=&quot;&quot;&gt;&lt;span style=&quot;text-align: left;&quot;&gt;payment&amp;nbsp;&lt;/span&gt;&lt;br&gt;&lt;/i&gt;&lt;/font&gt;&lt;/div&gt;&lt;font color=&quot;#ff0000&quot; style=&quot;font-size: 10px;&quot;&gt;&lt;i&gt;step(2): /movimentTransaction&lt;/i&gt;&lt;/font&gt;" style="edgeLabel;html=1;align=center;verticalAlign=middle;resizable=0;points=[];" vertex="1" connectable="0" parent="yO5S6J-YgCtZeVcnPbtX-63">
          <mxGeometry x="0.0976" y="-1" relative="1" as="geometry">
            <mxPoint x="10" y="-14" as="offset" />
          </mxGeometry>
        </mxCell>
        <mxCell id="yO5S6J-YgCtZeVcnPbtX-5" value="&lt;b&gt;go-payment-gateway&lt;/b&gt;" style="rounded=1;whiteSpace=wrap;html=1;" vertex="1" parent="1">
          <mxGeometry x="360" y="40" width="200" height="120" as="geometry" />
        </mxCell>
        <mxCell id="yO5S6J-YgCtZeVcnPbtX-6" value="&lt;b&gt;go-limit&lt;/b&gt;" style="rounded=1;whiteSpace=wrap;html=1;" vertex="1" parent="1">
          <mxGeometry x="830" y="-130" width="120" height="60" as="geometry" />
        </mxCell>
        <mxCell id="yO5S6J-YgCtZeVcnPbtX-8" style="rounded=0;orthogonalLoop=1;jettySize=auto;html=1;entryX=0.008;entryY=0.407;entryDx=0;entryDy=0;dashed=1;exitX=0.997;exitY=0.553;exitDx=0;exitDy=0;exitPerimeter=0;entryPerimeter=0;" edge="1" parent="1" source="yO5S6J-YgCtZeVcnPbtX-2" target="yO5S6J-YgCtZeVcnPbtX-5">
          <mxGeometry relative="1" as="geometry">
            <mxPoint x="230" y="60" as="sourcePoint" />
            <mxPoint x="450" y="150" as="targetPoint" />
          </mxGeometry>
        </mxCell>
        <mxCell id="yO5S6J-YgCtZeVcnPbtX-11" value="&lt;i&gt;/pixTransaction&lt;/i&gt;&lt;div&gt;&lt;i&gt;&lt;font color=&quot;#ff0000&quot;&gt;/payment&lt;/font&gt;&lt;/i&gt;&lt;/div&gt;" style="edgeLabel;html=1;align=left;verticalAlign=middle;resizable=0;points=[];" vertex="1" connectable="0" parent="yO5S6J-YgCtZeVcnPbtX-8">
          <mxGeometry x="-0.1062" y="-1" relative="1" as="geometry">
            <mxPoint x="-61" y="-9" as="offset" />
          </mxGeometry>
        </mxCell>
        <mxCell id="yO5S6J-YgCtZeVcnPbtX-14" value="&lt;b&gt;&lt;font color=&quot;#0000ff&quot;&gt;go-tokenization-gprc&lt;/font&gt;&lt;/b&gt;" style="rounded=1;whiteSpace=wrap;html=1;" vertex="1" parent="1">
          <mxGeometry x="810" y="-270" width="150" height="60" as="geometry" />
        </mxCell>
        <mxCell id="yO5S6J-YgCtZeVcnPbtX-19" style="rounded=0;orthogonalLoop=1;jettySize=auto;html=1;entryX=0.75;entryY=0;entryDx=0;entryDy=0;dashed=1;edgeStyle=orthogonalEdgeStyle;" edge="1" parent="1" source="yO5S6J-YgCtZeVcnPbtX-16" target="yO5S6J-YgCtZeVcnPbtX-18">
          <mxGeometry relative="1" as="geometry">
            <Array as="points">
              <mxPoint x="565" y="310" />
            </Array>
          </mxGeometry>
        </mxCell>
        <mxCell id="yO5S6J-YgCtZeVcnPbtX-57" value="&lt;i&gt;/get/{id}&lt;/i&gt;" style="edgeLabel;html=1;align=center;verticalAlign=middle;resizable=0;points=[];" vertex="1" connectable="0" parent="yO5S6J-YgCtZeVcnPbtX-19">
          <mxGeometry x="0.2756" relative="1" as="geometry">
            <mxPoint x="86" as="offset" />
          </mxGeometry>
        </mxCell>
        <mxCell id="yO5S6J-YgCtZeVcnPbtX-16" value="&lt;b&gt;go-card&lt;/b&gt;" style="rounded=1;whiteSpace=wrap;html=1;" vertex="1" parent="1">
          <mxGeometry x="840" y="270" width="120" height="60" as="geometry" />
        </mxCell>
        <mxCell id="yO5S6J-YgCtZeVcnPbtX-20" style="edgeStyle=orthogonalEdgeStyle;rounded=0;orthogonalLoop=1;jettySize=auto;html=1;entryX=0.5;entryY=0;entryDx=0;entryDy=0;dashed=1;" edge="1" parent="1" source="yO5S6J-YgCtZeVcnPbtX-17" target="yO5S6J-YgCtZeVcnPbtX-18">
          <mxGeometry relative="1" as="geometry" />
        </mxCell>
        <mxCell id="yO5S6J-YgCtZeVcnPbtX-44" value="&lt;i&gt;/get/{id}&lt;/i&gt;" style="edgeLabel;html=1;align=center;verticalAlign=middle;resizable=0;points=[];" vertex="1" connectable="0" parent="yO5S6J-YgCtZeVcnPbtX-20">
          <mxGeometry x="0.6143" y="3" relative="1" as="geometry">
            <mxPoint x="-83" y="-45" as="offset" />
          </mxGeometry>
        </mxCell>
        <mxCell id="yO5S6J-YgCtZeVcnPbtX-26" style="rounded=0;orthogonalLoop=1;jettySize=auto;html=1;dashed=1;entryX=0.989;entryY=0.449;entryDx=0;entryDy=0;entryPerimeter=0;edgeStyle=orthogonalEdgeStyle;" edge="1" parent="1" source="yO5S6J-YgCtZeVcnPbtX-17" target="yO5S6J-YgCtZeVcnPbtX-29">
          <mxGeometry relative="1" as="geometry">
            <Array as="points">
              <mxPoint x="320" y="393" />
            </Array>
          </mxGeometry>
        </mxCell>
        <mxCell id="yO5S6J-YgCtZeVcnPbtX-27" value="topic.ledger" style="edgeLabel;html=1;align=center;verticalAlign=middle;resizable=0;points=[];" vertex="1" connectable="0" parent="yO5S6J-YgCtZeVcnPbtX-26">
          <mxGeometry x="0.0442" y="1" relative="1" as="geometry">
            <mxPoint x="-25" y="-11" as="offset" />
          </mxGeometry>
        </mxCell>
        <mxCell id="yO5S6J-YgCtZeVcnPbtX-17" value="&lt;b&gt;go-ledger&lt;/b&gt;" style="rounded=1;whiteSpace=wrap;html=1;" vertex="1" parent="1">
          <mxGeometry x="200" y="270" width="210" height="60" as="geometry" />
        </mxCell>
        <mxCell id="yO5S6J-YgCtZeVcnPbtX-18" value="&lt;b&gt;go-account&lt;/b&gt;" style="rounded=1;whiteSpace=wrap;html=1;" vertex="1" parent="1">
          <mxGeometry x="430" y="370" width="180" height="60" as="geometry" />
        </mxCell>
        <mxCell id="yO5S6J-YgCtZeVcnPbtX-22" style="edgeStyle=orthogonalEdgeStyle;rounded=0;orthogonalLoop=1;jettySize=auto;html=1;entryX=0.5;entryY=1;entryDx=0;entryDy=0;dashed=1;" edge="1" parent="1" source="yO5S6J-YgCtZeVcnPbtX-21" target="yO5S6J-YgCtZeVcnPbtX-18">
          <mxGeometry relative="1" as="geometry" />
        </mxCell>
        <mxCell id="yO5S6J-YgCtZeVcnPbtX-94" value="&lt;i&gt;/get/{id}&lt;/i&gt;" style="edgeLabel;html=1;align=center;verticalAlign=middle;resizable=0;points=[];" vertex="1" connectable="0" parent="yO5S6J-YgCtZeVcnPbtX-22">
          <mxGeometry x="-0.5314" y="-3" relative="1" as="geometry">
            <mxPoint x="-7" y="-3" as="offset" />
          </mxGeometry>
        </mxCell>
        <mxCell id="yO5S6J-YgCtZeVcnPbtX-28" style="edgeStyle=orthogonalEdgeStyle;rounded=0;orthogonalLoop=1;jettySize=auto;html=1;dashed=1;" edge="1" parent="1" source="yO5S6J-YgCtZeVcnPbtX-21" target="yO5S6J-YgCtZeVcnPbtX-17">
          <mxGeometry relative="1" as="geometry">
            <Array as="points">
              <mxPoint x="350" y="400" />
              <mxPoint x="350" y="400" />
            </Array>
          </mxGeometry>
        </mxCell>
        <mxCell id="yO5S6J-YgCtZeVcnPbtX-60" value="/&lt;i&gt;movimentTransaction&lt;/i&gt;" style="edgeLabel;html=1;align=center;verticalAlign=middle;resizable=0;points=[];" vertex="1" connectable="0" parent="yO5S6J-YgCtZeVcnPbtX-28">
          <mxGeometry x="-0.2131" y="-1" relative="1" as="geometry">
            <mxPoint x="-1" y="43" as="offset" />
          </mxGeometry>
        </mxCell>
        <mxCell id="yO5S6J-YgCtZeVcnPbtX-21" value="&lt;b&gt;go-worker-ledger&lt;/b&gt;" style="rounded=1;whiteSpace=wrap;html=1;" vertex="1" parent="1">
          <mxGeometry x="290" y="490" width="120" height="60" as="geometry" />
        </mxCell>
        <mxCell id="yO5S6J-YgCtZeVcnPbtX-24" style="rounded=0;orthogonalLoop=1;jettySize=auto;html=1;entryX=0;entryY=0.5;entryDx=0;entryDy=0;dashed=1;" edge="1" parent="1" source="yO5S6J-YgCtZeVcnPbtX-23" target="yO5S6J-YgCtZeVcnPbtX-21">
          <mxGeometry relative="1" as="geometry" />
        </mxCell>
        <mxCell id="yO5S6J-YgCtZeVcnPbtX-25" value="topic.pix" style="edgeLabel;html=1;align=center;verticalAlign=middle;resizable=0;points=[];" vertex="1" connectable="0" parent="yO5S6J-YgCtZeVcnPbtX-24">
          <mxGeometry x="-0.3473" y="-1" relative="1" as="geometry">
            <mxPoint x="10" y="-11" as="offset" />
          </mxGeometry>
        </mxCell>
        <mxCell id="yO5S6J-YgCtZeVcnPbtX-23" value="" style="ellipse;whiteSpace=wrap;html=1;aspect=fixed;" vertex="1" parent="1">
          <mxGeometry x="135" y="495" width="50" height="50" as="geometry" />
        </mxCell>
        <mxCell id="yO5S6J-YgCtZeVcnPbtX-29" value="" style="ellipse;whiteSpace=wrap;html=1;aspect=fixed;" vertex="1" parent="1">
          <mxGeometry x="130" y="370" width="50" height="50" as="geometry" />
        </mxCell>
        <mxCell id="yO5S6J-YgCtZeVcnPbtX-31" style="rounded=0;orthogonalLoop=1;jettySize=auto;html=1;entryX=0;entryY=0.5;entryDx=0;entryDy=0;dashed=1;" edge="1" parent="1" source="yO5S6J-YgCtZeVcnPbtX-30" target="yO5S6J-YgCtZeVcnPbtX-17">
          <mxGeometry relative="1" as="geometry" />
        </mxCell>
        <mxCell id="yO5S6J-YgCtZeVcnPbtX-32" value="&lt;div&gt;&lt;i&gt;/movimentTransaction&lt;/i&gt;&lt;/div&gt;&lt;div&gt;&lt;i&gt;/movimentStatement/{id}&lt;/i&gt;&lt;/div&gt;&lt;div&gt;&lt;i&gt;/movimentStatementPerDate&lt;/i&gt;&lt;/div&gt;" style="edgeLabel;html=1;align=left;verticalAlign=middle;resizable=0;points=[];" vertex="1" connectable="0" parent="yO5S6J-YgCtZeVcnPbtX-31">
          <mxGeometry x="-0.2451" y="-2" relative="1" as="geometry">
            <mxPoint x="-65" y="-2" as="offset" />
          </mxGeometry>
        </mxCell>
        <mxCell id="yO5S6J-YgCtZeVcnPbtX-30" value="Actor" style="shape=umlActor;verticalLabelPosition=bottom;verticalAlign=top;html=1;outlineConnect=0;" vertex="1" parent="1">
          <mxGeometry x="-50" y="270" width="30" height="60" as="geometry" />
        </mxCell>
        <mxCell id="yO5S6J-YgCtZeVcnPbtX-34" style="edgeStyle=orthogonalEdgeStyle;rounded=0;orthogonalLoop=1;jettySize=auto;html=1;dashed=1;" edge="1" parent="1" source="yO5S6J-YgCtZeVcnPbtX-33" target="yO5S6J-YgCtZeVcnPbtX-2">
          <mxGeometry relative="1" as="geometry" />
        </mxCell>
        <mxCell id="yO5S6J-YgCtZeVcnPbtX-35" value="&lt;div&gt;&lt;i&gt;/paymentToken&lt;/i&gt;&lt;/div&gt;&lt;div&gt;&lt;i&gt;/payment&lt;/i&gt;&lt;/div&gt;&lt;div&gt;&lt;i&gt;/pixTransaction&lt;/i&gt;&lt;/div&gt;" style="edgeLabel;html=1;align=left;verticalAlign=middle;resizable=0;points=[];" vertex="1" connectable="0" parent="yO5S6J-YgCtZeVcnPbtX-34">
          <mxGeometry x="-0.0988" y="-1" relative="1" as="geometry">
            <mxPoint x="-57" y="-1" as="offset" />
          </mxGeometry>
        </mxCell>
        <mxCell id="yO5S6J-YgCtZeVcnPbtX-33" value="Actor" style="shape=umlActor;verticalLabelPosition=bottom;verticalAlign=top;html=1;outlineConnect=0;" vertex="1" parent="1">
          <mxGeometry x="-170" y="-110" width="30" height="60" as="geometry" />
        </mxCell>
        <mxCell id="yO5S6J-YgCtZeVcnPbtX-40" value="Actor" style="shape=umlActor;verticalLabelPosition=bottom;verticalAlign=top;html=1;outlineConnect=0;" vertex="1" parent="1">
          <mxGeometry x="-40" y="80" width="30" height="60" as="geometry" />
        </mxCell>
        <mxCell id="yO5S6J-YgCtZeVcnPbtX-41" style="edgeStyle=orthogonalEdgeStyle;rounded=0;orthogonalLoop=1;jettySize=auto;html=1;dashed=1;" edge="1" parent="1" source="yO5S6J-YgCtZeVcnPbtX-40">
          <mxGeometry relative="1" as="geometry">
            <mxPoint x="357" y="110" as="targetPoint" />
          </mxGeometry>
        </mxCell>
        <mxCell id="yO5S6J-YgCtZeVcnPbtX-42" value="&lt;i style=&quot;&quot;&gt;/pixTransaction&lt;/i&gt;&lt;div style=&quot;&quot;&gt;&lt;i&gt;/payment&lt;/i&gt;&lt;/div&gt;&lt;div style=&quot;&quot;&gt;&lt;div&gt;&lt;i&gt;/pixTransaction/{id}&lt;/i&gt;&lt;/div&gt;&lt;div&gt;&lt;i&gt;/statPixTransaction/{id}&lt;/i&gt;&lt;/div&gt;&lt;/div&gt;" style="edgeLabel;html=1;align=left;verticalAlign=middle;resizable=0;points=[];" vertex="1" connectable="0" parent="yO5S6J-YgCtZeVcnPbtX-41">
          <mxGeometry x="-0.2178" relative="1" as="geometry">
            <mxPoint x="-113" as="offset" />
          </mxGeometry>
        </mxCell>
        <mxCell id="yO5S6J-YgCtZeVcnPbtX-45" value="Actor" style="shape=umlActor;verticalLabelPosition=bottom;verticalAlign=top;html=1;outlineConnect=0;" vertex="1" parent="1">
          <mxGeometry x="760" y="370" width="30" height="60" as="geometry" />
        </mxCell>
        <mxCell id="yO5S6J-YgCtZeVcnPbtX-46" style="edgeStyle=orthogonalEdgeStyle;rounded=0;orthogonalLoop=1;jettySize=auto;html=1;entryX=1;entryY=0.5;entryDx=0;entryDy=0;dashed=1;" edge="1" parent="1" source="yO5S6J-YgCtZeVcnPbtX-45" target="yO5S6J-YgCtZeVcnPbtX-18">
          <mxGeometry relative="1" as="geometry" />
        </mxCell>
        <mxCell id="yO5S6J-YgCtZeVcnPbtX-47" value="&lt;i&gt;/add&lt;/i&gt;&lt;div&gt;&lt;i&gt;/get/{id}&lt;/i&gt;&lt;/div&gt;&lt;div&gt;&lt;i&gt;/getId/{id}&lt;/i&gt;&lt;/div&gt;&lt;div&gt;&lt;i&gt;/delete&lt;/i&gt;&lt;/div&gt;&lt;div&gt;&lt;i&gt;/update/{id}&lt;/i&gt;&lt;/div&gt;&lt;div&gt;&lt;i&gt;/list/{id}&lt;/i&gt;&lt;/div&gt;" style="edgeLabel;html=1;align=left;verticalAlign=middle;resizable=0;points=[];" vertex="1" connectable="0" parent="yO5S6J-YgCtZeVcnPbtX-46">
          <mxGeometry x="0.0005" relative="1" as="geometry">
            <mxPoint x="5" as="offset" />
          </mxGeometry>
        </mxCell>
        <mxCell id="yO5S6J-YgCtZeVcnPbtX-50" style="edgeStyle=orthogonalEdgeStyle;rounded=0;orthogonalLoop=1;jettySize=auto;html=1;entryX=1;entryY=0.5;entryDx=0;entryDy=0;dashed=1;" edge="1" parent="1" source="yO5S6J-YgCtZeVcnPbtX-48" target="yO5S6J-YgCtZeVcnPbtX-6">
          <mxGeometry relative="1" as="geometry" />
        </mxCell>
        <mxCell id="yO5S6J-YgCtZeVcnPbtX-51" value="&lt;i&gt;/checkLimitTransaction&lt;/i&gt;" style="edgeLabel;html=1;align=center;verticalAlign=middle;resizable=0;points=[];" vertex="1" connectable="0" parent="yO5S6J-YgCtZeVcnPbtX-50">
          <mxGeometry x="-0.0405" relative="1" as="geometry">
            <mxPoint as="offset" />
          </mxGeometry>
        </mxCell>
        <mxCell id="yO5S6J-YgCtZeVcnPbtX-48" value="Actor" style="shape=umlActor;verticalLabelPosition=bottom;verticalAlign=top;html=1;outlineConnect=0;" vertex="1" parent="1">
          <mxGeometry x="1130" y="-130" width="30" height="60" as="geometry" />
        </mxCell>
        <mxCell id="yO5S6J-YgCtZeVcnPbtX-55" style="edgeStyle=orthogonalEdgeStyle;rounded=0;orthogonalLoop=1;jettySize=auto;html=1;entryX=1;entryY=0.5;entryDx=0;entryDy=0;dashed=1;" edge="1" parent="1" source="yO5S6J-YgCtZeVcnPbtX-54" target="yO5S6J-YgCtZeVcnPbtX-16">
          <mxGeometry relative="1" as="geometry" />
        </mxCell>
        <mxCell id="yO5S6J-YgCtZeVcnPbtX-58" value="&lt;i&gt;/card&lt;/i&gt;&lt;div&gt;&lt;i&gt;/card/{id}&lt;/i&gt;&lt;/div&gt;&lt;div&gt;&lt;i&gt;/atc&lt;/i&gt;&lt;/div&gt;&lt;div&gt;&lt;i&gt;/cardToken/{id}&lt;/i&gt;&lt;/div&gt;&lt;div&gt;&lt;i&gt;/cardToken&lt;/i&gt;&lt;/div&gt;" style="edgeLabel;html=1;align=left;verticalAlign=middle;resizable=0;points=[];" vertex="1" connectable="0" parent="yO5S6J-YgCtZeVcnPbtX-55">
          <mxGeometry x="0.0089" relative="1" as="geometry">
            <mxPoint x="-5" as="offset" />
          </mxGeometry>
        </mxCell>
        <mxCell id="yO5S6J-YgCtZeVcnPbtX-54" value="Actor" style="shape=umlActor;verticalLabelPosition=bottom;verticalAlign=top;html=1;outlineConnect=0;" vertex="1" parent="1">
          <mxGeometry x="1150" y="270" width="30" height="60" as="geometry" />
        </mxCell>
        <mxCell id="yO5S6J-YgCtZeVcnPbtX-68" style="edgeStyle=orthogonalEdgeStyle;rounded=0;orthogonalLoop=1;jettySize=auto;html=1;entryX=0;entryY=0.333;entryDx=0;entryDy=0;entryPerimeter=0;dashed=1;" edge="1" parent="1" source="yO5S6J-YgCtZeVcnPbtX-5" target="yO5S6J-YgCtZeVcnPbtX-16">
          <mxGeometry relative="1" as="geometry">
            <Array as="points">
              <mxPoint x="600" y="150" />
              <mxPoint x="600" y="290" />
            </Array>
          </mxGeometry>
        </mxCell>
        <mxCell id="yO5S6J-YgCtZeVcnPbtX-69" value="&lt;font color=&quot;#ff0000&quot;&gt;payment&lt;/font&gt;&lt;div style=&quot;font-size: 10px;&quot;&gt;&lt;font color=&quot;#ff0000&quot;&gt;step(3): /atc&lt;/font&gt;&lt;/div&gt;" style="edgeLabel;html=1;align=center;verticalAlign=middle;resizable=0;points=[];fontStyle=2;fontSize=10;" vertex="1" connectable="0" parent="yO5S6J-YgCtZeVcnPbtX-68">
          <mxGeometry x="-0.0834" y="-1" relative="1" as="geometry">
            <mxPoint x="-12" y="-121" as="offset" />
          </mxGeometry>
        </mxCell>
        <mxCell id="yO5S6J-YgCtZeVcnPbtX-70" value="" style="ellipse;whiteSpace=wrap;html=1;aspect=fixed;" vertex="1" parent="1">
          <mxGeometry x="710" y="94" width="50" height="50" as="geometry" />
        </mxCell>
        <mxCell id="yO5S6J-YgCtZeVcnPbtX-71" style="rounded=0;orthogonalLoop=1;jettySize=auto;html=1;dashed=1;exitX=1.001;exitY=0.657;exitDx=0;exitDy=0;entryX=0;entryY=0.5;entryDx=0;entryDy=0;exitPerimeter=0;" edge="1" parent="1" source="yO5S6J-YgCtZeVcnPbtX-5" target="yO5S6J-YgCtZeVcnPbtX-70">
          <mxGeometry relative="1" as="geometry">
            <mxPoint x="560" y="125" as="sourcePoint" />
            <mxPoint x="690.0000000000032" y="120" as="targetPoint" />
          </mxGeometry>
        </mxCell>
        <mxCell id="yO5S6J-YgCtZeVcnPbtX-72" value="&lt;i style=&quot;font-size: 10px;&quot;&gt;&lt;font style=&quot;font-size: 10px;&quot;&gt;pixTransaction&lt;/font&gt;&lt;/i&gt;&lt;div style=&quot;font-size: 10px;&quot;&gt;&lt;i&gt;&lt;font style=&quot;font-size: 10px;&quot;&gt;step(3): topic.pix&lt;/font&gt;&lt;/i&gt;&lt;/div&gt;&lt;div style=&quot;font-size: 10px;&quot;&gt;&lt;i&gt;&lt;font style=&quot;font-size: 10px;&quot;&gt;step(4): topic.webhook&lt;/font&gt;&lt;/i&gt;&lt;/div&gt;" style="edgeLabel;html=1;align=center;verticalAlign=middle;resizable=0;points=[];" vertex="1" connectable="0" parent="yO5S6J-YgCtZeVcnPbtX-71">
          <mxGeometry x="0.2077" y="-1" relative="1" as="geometry">
            <mxPoint x="-23" y="-25" as="offset" />
          </mxGeometry>
        </mxCell>
        <mxCell id="yO5S6J-YgCtZeVcnPbtX-75" style="rounded=0;orthogonalLoop=1;jettySize=auto;html=1;entryX=0.008;entryY=0.377;entryDx=0;entryDy=0;entryPerimeter=0;strokeColor=#0000FF;exitX=1;exitY=0.75;exitDx=0;exitDy=0;" edge="1" parent="1" source="yO5S6J-YgCtZeVcnPbtX-3" target="yO5S6J-YgCtZeVcnPbtX-6">
          <mxGeometry relative="1" as="geometry" />
        </mxCell>
        <mxCell id="yO5S6J-YgCtZeVcnPbtX-76" value="&lt;i&gt;&lt;font color=&quot;#0000ff&quot;&gt;paymentToken&lt;/font&gt;&lt;/i&gt;&lt;div&gt;&lt;i&gt;&lt;font color=&quot;#0000ff&quot;&gt;step(1): /checkLimitTransaction&lt;/font&gt;&lt;/i&gt;&lt;/div&gt;" style="edgeLabel;html=1;align=center;verticalAlign=middle;resizable=0;points=[];" vertex="1" connectable="0" parent="yO5S6J-YgCtZeVcnPbtX-75">
          <mxGeometry x="0.043" y="1" relative="1" as="geometry">
            <mxPoint as="offset" />
          </mxGeometry>
        </mxCell>
        <mxCell id="yO5S6J-YgCtZeVcnPbtX-80" style="rounded=0;orthogonalLoop=1;jettySize=auto;html=1;entryX=0.25;entryY=0;entryDx=0;entryDy=0;strokeColor=#0000FF;exitX=0.584;exitY=1.018;exitDx=0;exitDy=0;exitPerimeter=0;" edge="1" parent="1" source="yO5S6J-YgCtZeVcnPbtX-3" target="yO5S6J-YgCtZeVcnPbtX-18">
          <mxGeometry relative="1" as="geometry" />
        </mxCell>
        <mxCell id="yO5S6J-YgCtZeVcnPbtX-81" value="&lt;i style=&quot;font-size: 10px;&quot;&gt;&lt;font style=&quot;font-size: 10px;&quot; color=&quot;#0000ff&quot;&gt;paymentToken&lt;/font&gt;&lt;/i&gt;&lt;div style=&quot;font-size: 10px;&quot;&gt;&lt;i style=&quot;&quot;&gt;&lt;font style=&quot;font-size: 10px;&quot; color=&quot;#0000ff&quot;&gt;step(2): /get/{id}&lt;/font&gt;&lt;/i&gt;&lt;/div&gt;" style="edgeLabel;html=1;align=center;verticalAlign=middle;resizable=0;points=[];" vertex="1" connectable="0" parent="yO5S6J-YgCtZeVcnPbtX-80">
          <mxGeometry x="-0.6003" y="-1" relative="1" as="geometry">
            <mxPoint x="3" y="-56" as="offset" />
          </mxGeometry>
        </mxCell>
        <mxCell id="yO5S6J-YgCtZeVcnPbtX-88" value="&lt;b&gt;go-webhook&lt;/b&gt;" style="rounded=1;whiteSpace=wrap;html=1;" vertex="1" parent="1">
          <mxGeometry x="300" y="605" width="120" height="60" as="geometry" />
        </mxCell>
        <mxCell id="yO5S6J-YgCtZeVcnPbtX-97" style="edgeStyle=orthogonalEdgeStyle;rounded=0;orthogonalLoop=1;jettySize=auto;html=1;entryX=0;entryY=0.5;entryDx=0;entryDy=0;dashed=1;" edge="1" parent="1" source="yO5S6J-YgCtZeVcnPbtX-96" target="yO5S6J-YgCtZeVcnPbtX-88">
          <mxGeometry relative="1" as="geometry" />
        </mxCell>
        <mxCell id="yO5S6J-YgCtZeVcnPbtX-98" value="topic.webhook" style="edgeLabel;html=1;align=center;verticalAlign=middle;resizable=0;points=[];" vertex="1" connectable="0" parent="yO5S6J-YgCtZeVcnPbtX-97">
          <mxGeometry x="-0.3502" y="1" relative="1" as="geometry">
            <mxPoint x="18" y="1" as="offset" />
          </mxGeometry>
        </mxCell>
        <mxCell id="yO5S6J-YgCtZeVcnPbtX-96" value="" style="ellipse;whiteSpace=wrap;html=1;aspect=fixed;" vertex="1" parent="1">
          <mxGeometry x="135" y="610" width="50" height="50" as="geometry" />
        </mxCell>
      </root>
    </mxGraphModel>
  </diagram>
</mxfile>
